<?xml version="1.0" encoding="UTF-8" standalone="no"?>
<!-- Generator: Adobe Illustrator 23.0.1, SVG Export Plug-In . SVG Version: 6.00 Build 0)  -->

<svg
   xmlns:dc="http://purl.org/dc/elements/1.1/"
   xmlns:cc="http://creativecommons.org/ns#"
   xmlns:rdf="http://www.w3.org/1999/02/22-rdf-syntax-ns#"
   xmlns:svg="http://www.w3.org/2000/svg"
   xmlns="http://www.w3.org/2000/svg"
   xmlns:sodipodi="http://sodipodi.sourceforge.net/DTD/sodipodi-0.dtd"
   xmlns:inkscape="http://www.inkscape.org/namespaces/inkscape"
   version="1.1"
   id="Layer_1"
   x="0px"
   y="0px"
   viewBox="0 0 210.9 193.5"
   xml:space="preserve"
   sodipodi:docname="logo.svg"
   width="210.90002"
   height="193.5"
   inkscape:version="0.92.3 (2405546, 2018-03-11)"><metadata
   id="metadata55"><rdf:RDF><cc:Work
       rdf:about=""><dc:format>image/svg+xml</dc:format><dc:type
         rdf:resource="http://purl.org/dc/dcmitype/StillImage" /><dc:title></dc:title></cc:Work></rdf:RDF></metadata><defs
   id="defs53" /><sodipodi:namedview
   pagecolor="#ffffff"
   bordercolor="#666666"
   borderopacity="1"
   objecttolerance="10"
   gridtolerance="10"
   guidetolerance="10"
   inkscape:pageopacity="0"
   inkscape:pageshadow="2"
   inkscape:window-width="1920"
   inkscape:window-height="1017"
   id="namedview51"
   showgrid="false"
   inkscape:zoom="0.4122514"
   inkscape:cx="344.45001"
   inkscape:cy="96.75"
   inkscape:window-x="-8"
   inkscape:window-y="-8"
   inkscape:window-maximized="1"
   inkscape:current-layer="Layer_1" />
<style
   type="text/css"
   id="style2">
	.st0{fill:#C42032;}
	.st1{fill:#231F20;}
</style>
<g
   id="g12">
	<g
   id="g10">
		<path
   class="st0"
   d="m 129.5,0 c 0,1.3 0,2.1 0,2.9 0,21.4 0.1,42.8 0.2,64.2 0,5.3 0.1,10.5 0.2,15.8 0.2,11.9 5.3,21.1 15.3,27.4 6.2,3.9 12.5,7.5 18.8,11.1 12.4,7.2 24.8,14.4 37.2,21.7 2.7,1.6 5.5,3.2 8.2,4.8 0.5,0.3 0.9,0.6 1.6,1.1 -2.2,0.8 -4.1,1.4 -6,2 -6.6,2.1 -13.1,4.2 -19.7,6.3 -1.6,0.5 -2.9,0.4 -4.4,-0.4 -13.4,-7.8 -26.8,-15.5 -40.2,-23.3 -4.9,-2.8 -9.7,-5.8 -14.7,-8.5 -11.8,-6.4 -17.5,-16.7 -17.6,-29.8 -0.2,-22.9 -0.1,-45.7 -0.1,-68.6 0,-1.2 0.2,-2.4 1,-3.4 6.4,-7.3 12.7,-14.8 19,-22.2 0.2,-0.2 0.5,-0.4 1.2,-1.1 z"
   id="path4"
   inkscape:connector-curvature="0"
   style="fill:#c42032" />
		<path
   class="st0"
   d="m 81.9,0.4 c 1.1,1.3 2.2,2.6 3.3,3.9 5.3,6.3 10.5,12.5 15.8,18.8 1.1,1.3 1.5,2.5 1.5,4.2 0,22.5 0,45.1 0,67.6 0,7.5 -1.8,14.6 -6.4,20.8 -2.8,3.8 -6.4,6.7 -10.4,9.1 -9.4,5.5 -18.8,10.9 -28.2,16.3 -9.2,5.3 -18.4,10.6 -27.5,16 -1.2,0.7 -2.4,1.1 -3.9,0.6 C 18,155 9.8,152.4 1.6,149.8 1.1,149.7 0.7,149.4 0,149.2 c 0.8,-0.5 1.3,-0.9 1.9,-1.2 21,-12.3 42,-24.5 63,-36.8 7.9,-4.6 13.2,-11.2 15.2,-20.2 0.8,-3.5 1.1,-7.1 1.1,-10.6 0.2,-16.9 0.1,-33.9 0.2,-50.8 0,-8.8 0,-17.7 0,-26.5 0,-0.8 0.1,-1.5 0.1,-2.3 0.1,-0.3 0.3,-0.3 0.4,-0.4 z"
   id="path6"
   inkscape:connector-curvature="0"
   style="fill:#c42032" />
		<path
   class="st0"
   d="m 22.6,193.6 c 0.8,-3.4 1.5,-6.3 2.3,-9.1 1.6,-6 3.2,-12 4.7,-18.1 0.4,-1.7 1.2,-2.8 2.8,-3.7 18,-10.5 35.8,-21.3 53.8,-31.7 12.3,-7.1 25,-7 37.3,-0.1 13.4,7.5 26.5,15.6 39.8,23.4 4.7,2.8 9.5,5.6 14.2,8.4 1.1,0.7 1.9,1.4 2.2,2.7 2.3,9 4.7,18 7,27.1 0.1,0.2 0,0.5 0,1 -1.1,-0.6 -2.1,-1.1 -3.1,-1.7 -18.1,-10.6 -36.2,-21.2 -54.4,-31.7 -5.3,-3.1 -10.8,-5.8 -16.7,-7.7 -5.7,-1.9 -11.2,-1.7 -16.8,0.5 -7.8,3.1 -15,7.2 -22.3,11.4 -16.3,9.4 -32.7,18.9 -49,28.4 -0.3,0.1 -0.8,0.3 -1.8,0.9 z"
   id="path8"
   inkscape:connector-curvature="0"
   style="fill:#c42032" />
	</g>
</g>


</svg>