<?xml version="1.0"?>
<svg xmlns="http://www.w3.org/2000/svg" xmlns:xlink="http://www.w3.org/1999/xlink" version="1.1" id="Capa_1" x="0px" y="0px" viewBox="0 0 483.083 483.083" style="enable-background:new 0 0 483.083 483.083;" xml:space="preserve" width="512px" height="512px"><g><g>
	<g>
		<path d="M195.04,375.7c42.217,0,81.033-13.883,112.483-37.4l139.683,139.683c3.4,3.4,7.65,5.1,11.9,5.1s8.783-1.7,11.9-5.1    c6.517-6.517,6.517-17.283,0-24.083L332.74,315.35c30.883-33.433,50.15-78.2,50.15-127.5C382.89,84.433,298.74,0,195.04,0    S7.19,84.433,7.19,187.85S91.34,375.7,195.04,375.7z M195.04,34c84.717,0,153.85,68.85,153.85,153.85S280.04,341.7,195.04,341.7    c-84.717,0-153.85-68.85-153.85-153.85S110.04,34,195.04,34z" data-original="#000000" class="active-path" data-old_color="#000000" fill="#666666"/>
		<path d="M125.906,204.283h53.833v53.833c0,9.35,7.65,17,17,17s17-7.65,17-17v-53.833h53.833c9.35,0,17-7.65,17-17s-7.65-17-17-17    H213.74V116.45c0-9.35-7.65-17-17-17s-17,7.65-17,17v53.833h-53.833c-9.35,0-17,7.65-17,17S116.556,204.283,125.906,204.283z" data-original="#000000" class="active-path" data-old_color="#000000" fill="#666666"/>
	</g>
</g></g> </svg>
