<?xml version="1.0" encoding="utf-8"?>
<!-- Generator: Adobe Illustrator 23.0.1, SVG Export Plug-In . SVG Version: 6.00 Build 0)  -->
<svg version="1.1" id="Layer_1" xmlns="http://www.w3.org/2000/svg" xmlns:xlink="http://www.w3.org/1999/xlink" x="0px" y="0px"
	 viewBox="0 0 671.9 193.6" style="enable-background:new 0 0 671.9 193.6;" xml:space="preserve">
<style type="text/css">
	.st0{fill:#C42032;}
	.st1{fill:#231F20;}
	.st2{font-family:'AvenirLTStd-Book';}
	.st3{font-size:83.7326px;}
	.st4{letter-spacing:19;}
	.st5{font-family:'AvenirLTStd-Roman';}
	.st6{font-size:20.2077px;}
</style>
<g>
	<g>
		<path class="st0" d="M129.5,0c0,1.3,0,2.1,0,2.9c0,21.4,0.1,42.8,0.2,64.2c0,5.3,0.1,10.5,0.2,15.8c0.2,11.9,5.3,21.1,15.3,27.4
			c6.2,3.9,12.5,7.5,18.8,11.1c12.4,7.2,24.8,14.4,37.2,21.7c2.7,1.6,5.5,3.2,8.2,4.8c0.5,0.3,0.9,0.6,1.6,1.1c-2.2,0.8-4.1,1.4-6,2
			c-6.6,2.1-13.1,4.2-19.7,6.3c-1.6,0.5-2.9,0.4-4.4-0.4c-13.4-7.8-26.8-15.5-40.2-23.3c-4.9-2.8-9.7-5.8-14.7-8.5
			c-11.8-6.4-17.5-16.7-17.6-29.8c-0.2-22.9-0.1-45.7-0.1-68.6c0-1.2,0.2-2.4,1-3.4C115.7,16,122,8.5,128.3,1.1
			C128.5,0.9,128.8,0.7,129.5,0z"/>
		<path class="st0" d="M81.9,0.4C83,1.7,84.1,3,85.2,4.3c5.3,6.3,10.5,12.5,15.8,18.8c1.1,1.3,1.5,2.5,1.5,4.2c0,22.5,0,45.1,0,67.6
			c0,7.5-1.8,14.6-6.4,20.8c-2.8,3.8-6.4,6.7-10.4,9.1c-9.4,5.5-18.8,10.9-28.2,16.3c-9.2,5.3-18.4,10.6-27.5,16
			c-1.2,0.7-2.4,1.1-3.9,0.6c-8.1-2.7-16.3-5.3-24.5-7.9c-0.5-0.1-0.9-0.4-1.6-0.6c0.8-0.5,1.3-0.9,1.9-1.2c21-12.3,42-24.5,63-36.8
			c7.9-4.6,13.2-11.2,15.2-20.2c0.8-3.5,1.1-7.1,1.1-10.6c0.2-16.9,0.1-33.9,0.2-50.8c0-8.8,0-17.7,0-26.5c0-0.8,0.1-1.5,0.1-2.3
			C81.6,0.5,81.8,0.5,81.9,0.4z"/>
		<path class="st0" d="M22.6,193.6c0.8-3.4,1.5-6.3,2.3-9.1c1.6-6,3.2-12,4.7-18.1c0.4-1.7,1.2-2.8,2.8-3.7
			c18-10.5,35.8-21.3,53.8-31.7c12.3-7.1,25-7,37.3-0.1c13.4,7.5,26.5,15.6,39.8,23.4c4.7,2.8,9.5,5.6,14.2,8.4
			c1.1,0.7,1.9,1.4,2.2,2.7c2.3,9,4.7,18,7,27.1c0.1,0.2,0,0.5,0,1c-1.1-0.6-2.1-1.1-3.1-1.7c-18.1-10.6-36.2-21.2-54.4-31.7
			c-5.3-3.1-10.8-5.8-16.7-7.7c-5.7-1.9-11.2-1.7-16.8,0.5c-7.8,3.1-15,7.2-22.3,11.4c-16.3,9.4-32.7,18.9-49,28.4
			C24.1,192.8,23.6,193,22.6,193.6z"/>
	</g>
</g>
<text transform="matrix(1 0 0 1 237.3951 116.3401)" class="st1 st2 st3 st4">Infinia</text>
<text transform="matrix(1 0 0 1 643.775 71.3348)" class="st1 st5 st6">TM</text>
</svg>
